<svg xmlns="http://www.w3.org/2000/svg" viewBox="0 0 195.7 184.11"><defs><style>.cls-1{fill:#133837;}.cls-2{stroke:#133837;stroke-miterlimit:10;stroke-width:1.46px;}</style></defs><title>Logo integralis</title><g id="Warstwa_2" data-name="Warstwa 2"><g id="Warstwa_1-2" data-name="Warstwa 1"><path class="cls-1" d="M59.07,176.2l1.59,5,1.59-5h1v6.08h-.76v-2.37l.07-2.37-1.59,4.74h-.58l-1.58-4.73.07,2.36v2.37h-.76V176.2Z"/><path class="cls-1" d="M66.07,182.37a1.65,1.65,0,0,1-1.3-.5,2.17,2.17,0,0,1-.46-1.48v-.55a2.55,2.55,0,0,1,.44-1.59,1.46,1.46,0,0,1,1.23-.57,1.41,1.41,0,0,1,1.19.51,2.6,2.6,0,0,1,.4,1.58v.49H65v.1a1.65,1.65,0,0,0,.27,1.06,1,1,0,0,0,.79.33,1.28,1.28,0,0,0,.57-.12,1.43,1.43,0,0,0,.47-.39l.38.47A1.68,1.68,0,0,1,66.07,182.37ZM66,178.32a.78.78,0,0,0-.68.32,1.88,1.88,0,0,0-.25,1h1.78v-.1a1.73,1.73,0,0,0-.23-.92A.72.72,0,0,0,66,178.32Z"/><path class="cls-1" d="M68.3,179.82a2.72,2.72,0,0,1,.39-1.59,1.29,1.29,0,0,1,1.12-.55,1.16,1.16,0,0,1,1,.53v-2.34h.74v6.42h-.68l0-.48a1.16,1.16,0,0,1-1,.57,1.29,1.29,0,0,1-1.1-.55,2.6,2.6,0,0,1-.41-1.54Zm.74.42a2.14,2.14,0,0,0,.23,1.12.8.8,0,0,0,.74.36.87.87,0,0,0,.82-.56v-2.28a.89.89,0,0,0-.82-.54.81.81,0,0,0-.74.36,2.12,2.12,0,0,0-.23,1.1Z"/><path class="cls-1" d="M73.94,181.06l.82-3.29h.79l-1.48,5.16a2,2,0,0,1-.47.88,1,1,0,0,1-.69.3,1.48,1.48,0,0,1-.38-.07v-.63l.16,0a.76.76,0,0,0,.5-.15,1.09,1.09,0,0,0,.29-.53l.15-.51-1.33-4.48h.81Z"/><path class="cls-1" d="M77.78,181.74a.78.78,0,0,0,.59-.23,1,1,0,0,0,.24-.65h.7a1.53,1.53,0,0,1-.46,1.08,1.47,1.47,0,0,1-1.07.43,1.57,1.57,0,0,1-1.28-.53,2.41,2.41,0,0,1-.44-1.57v-.5a2.4,2.4,0,0,1,.44-1.56,1.56,1.56,0,0,1,1.28-.53,1.43,1.43,0,0,1,1.1.44,1.78,1.78,0,0,1,.43,1.2h-.7a1.23,1.23,0,0,0-.24-.75.75.75,0,0,0-.6-.25.85.85,0,0,0-.73.32,1.87,1.87,0,0,0-.25,1.06v.58a2,2,0,0,0,.24,1.13A.85.85,0,0,0,77.78,181.74Z"/><path class="cls-1" d="M81.4,181.06l.82-3.29H83l-1.48,5.16a2,2,0,0,1-.47.88,1,1,0,0,1-.69.3A1.48,1.48,0,0,1,80,184v-.63l.16,0a.76.76,0,0,0,.5-.15,1.09,1.09,0,0,0,.29-.53l.15-.51-1.33-4.48h.81Z"/><path class="cls-1" d="M84.43,177.77l0,.49a1.32,1.32,0,0,1,1.1-.57q1.2,0,1.22,1.6v3H86v-3a1.23,1.23,0,0,0-.18-.75.64.64,0,0,0-.53-.22.75.75,0,0,0-.5.18,1.34,1.34,0,0,0-.35.48v3.29h-.74v-4.52Z"/><path class="cls-1" d="M90.2,182.29a1.61,1.61,0,0,1-.1-.49,1.17,1.17,0,0,1-1,.58,1.3,1.3,0,0,1-1-.34,1.32,1.32,0,0,1-.34-1,1.38,1.38,0,0,1,.47-1.1,1.93,1.93,0,0,1,1.28-.41h.54v-.48a.63.63,0,0,0-.73-.75.76.76,0,0,0-.54.2.67.67,0,0,0-.21.5h-.74a1.2,1.2,0,0,1,.21-.66,1.43,1.43,0,0,1,.55-.5,1.65,1.65,0,0,1,.77-.18,1.47,1.47,0,0,1,1.06.34,1.35,1.35,0,0,1,.37,1v2.28a2.74,2.74,0,0,0,.14.91v.07Zm-1-.59a1,1,0,0,0,.52-.15.93.93,0,0,0,.36-.38v-1.08h-.42a1.4,1.4,0,0,0-.83.24.75.75,0,0,0-.31.64.82.82,0,0,0,.16.56A.67.67,0,0,0,89.21,181.7Z"/><path class="cls-1" d="M96.86,179.6H94.8v2.69H94V176.2H97.2v.66H94.8v2.08h2.06Z"/><path class="cls-1" d="M100.26,181.89a1.27,1.27,0,0,1-1.07.48,1.08,1.08,0,0,1-.93-.42,2.08,2.08,0,0,1-.32-1.23v-2.95h.74v2.89q0,1.06.64,1.06a.93.93,0,0,0,.93-.6v-3.35H101v4.52h-.7Z"/><path class="cls-1" d="M102.79,177.77l0,.49a1.32,1.32,0,0,1,1.1-.57q1.2,0,1.22,1.6v3h-.74v-3a1.23,1.23,0,0,0-.18-.75.64.64,0,0,0-.53-.22.75.75,0,0,0-.5.18,1.34,1.34,0,0,0-.35.48v3.29h-.74v-4.52Z"/><path class="cls-1" d="M107.37,180.22l-.39.45v1.62h-.74v-6.42H107v3.84l1.41-1.94h.89l-1.44,1.89,1.63,2.63h-.86Z"/><path class="cls-1" d="M111.58,181.74a.78.78,0,0,0,.59-.23,1,1,0,0,0,.24-.65h.7a1.53,1.53,0,0,1-.46,1.08,1.47,1.47,0,0,1-1.07.43,1.57,1.57,0,0,1-1.28-.53,2.41,2.41,0,0,1-.44-1.57v-.5a2.4,2.4,0,0,1,.44-1.56,1.56,1.56,0,0,1,1.28-.53,1.43,1.43,0,0,1,1.1.44,1.78,1.78,0,0,1,.43,1.2h-.7a1.23,1.23,0,0,0-.24-.75.75.75,0,0,0-.6-.25.85.85,0,0,0-.73.32,1.87,1.87,0,0,0-.25,1.06v.58a2,2,0,0,0,.24,1.13A.85.85,0,0,0,111.58,181.74Z"/><path class="cls-1" d="M114.72,177.77v5.09q0,1.26-1,1.26a1,1,0,0,1-.41-.07v-.62a1,1,0,0,0,.29,0,.32.32,0,0,0,.28-.14.92.92,0,0,0,.09-.49v-5.07Zm0-1.2a.47.47,0,0,1-.1.31.39.39,0,0,1-.32.13.38.38,0,0,1-.31-.13.48.48,0,0,1-.1-.31.5.5,0,0,1,.1-.32.37.37,0,0,1,.31-.13.38.38,0,0,1,.32.13A.49.49,0,0,1,114.75,176.57Z"/><path class="cls-1" d="M115.72,179.82a2.36,2.36,0,0,1,.48-1.56,1.56,1.56,0,0,1,1.26-.57,1.58,1.58,0,0,1,1.26.56,2.33,2.33,0,0,1,.49,1.53v.48a2.36,2.36,0,0,1-.48,1.55,1.7,1.7,0,0,1-2.53,0,2.31,2.31,0,0,1-.49-1.5Zm.74.43a1.92,1.92,0,0,0,.27,1.1.85.85,0,0,0,.74.4q1,0,1-1.41v-.51a1.92,1.92,0,0,0-.28-1.1.86.86,0,0,0-.74-.4.84.84,0,0,0-.73.4,1.92,1.92,0,0,0-.27,1.09Z"/><path class="cls-1" d="M120.87,177.77l0,.49a1.32,1.32,0,0,1,1.1-.57q1.2,0,1.22,1.6v3h-.74v-3a1.23,1.23,0,0,0-.18-.75.64.64,0,0,0-.53-.22.75.75,0,0,0-.5.18,1.34,1.34,0,0,0-.35.48v3.29h-.74v-4.52Z"/><path class="cls-1" d="M126.64,182.29a1.61,1.61,0,0,1-.1-.49,1.17,1.17,0,0,1-1,.58,1.3,1.3,0,0,1-1-.34,1.32,1.32,0,0,1-.34-1,1.38,1.38,0,0,1,.47-1.1,1.93,1.93,0,0,1,1.28-.41h.54v-.48a.63.63,0,0,0-.73-.75.76.76,0,0,0-.54.2.67.67,0,0,0-.21.5h-.74a1.2,1.2,0,0,1,.21-.66,1.43,1.43,0,0,1,.55-.5,1.65,1.65,0,0,1,.77-.18,1.47,1.47,0,0,1,1.06.34,1.35,1.35,0,0,1,.37,1v2.28a2.74,2.74,0,0,0,.14.91v.07Zm-1-.59a1,1,0,0,0,.52-.15.93.93,0,0,0,.36-.38v-1.08h-.42a1.4,1.4,0,0,0-.83.24.75.75,0,0,0-.31.64.82.82,0,0,0,.16.56A.67.67,0,0,0,125.65,181.7Z"/><path class="cls-1" d="M129.21,182.29h-.74v-6.42h.74Z"/><path class="cls-1" d="M131.07,177.77l0,.49a1.32,1.32,0,0,1,1.1-.57q1.2,0,1.22,1.6v3h-.74v-3a1.23,1.23,0,0,0-.18-.75.64.64,0,0,0-.53-.22.75.75,0,0,0-.5.18,1.34,1.34,0,0,0-.35.48v3.29h-.74v-4.52Z"/><path class="cls-1" d="M136.84,182.29a1.61,1.61,0,0,1-.1-.49,1.17,1.17,0,0,1-1,.58,1.3,1.3,0,0,1-1-.34,1.32,1.32,0,0,1-.34-1,1.38,1.38,0,0,1,.47-1.1,1.93,1.93,0,0,1,1.28-.41h.54v-.48a.63.63,0,0,0-.73-.75.76.76,0,0,0-.54.2.67.67,0,0,0-.21.5h-.74a1.2,1.2,0,0,1,.21-.66,1.43,1.43,0,0,1,.55-.5,1.65,1.65,0,0,1,.77-.18,1.47,1.47,0,0,1,1.06.34,1.35,1.35,0,0,1,.37,1v2.28a2.74,2.74,0,0,0,.14.91v.07Zm-1-.59a1,1,0,0,0,.52-.15.93.93,0,0,0,.36-.38v-1.08h-.42a1.4,1.4,0,0,0-.83.24.75.75,0,0,0-.31.64.82.82,0,0,0,.16.56A.67.67,0,0,0,135.85,181.7Z"/><path class="cls-2" d="M.73,148.74H1.9v16.37H.73Z"/><path class="cls-2" d="M23.36,155.89l-5.85-5.45v14.66H16.35V148.74h1.17v.07l5.85,5.45v-5.52h1.17v16.37H23.36Z"/><path class="cls-2" d="M39.59,148.74h5.85v1.17H43.1v15.2H41.93v-15.2H39.59Z"/><path class="cls-2" d="M59,154.58h.7v-5.85h7v1.17H60.86v4.68h5.85v1.17H60.86v8.18h5.85v1.17h-7v-9.35H59Z"/><path class="cls-2" d="M87.48,163.94a6.55,6.55,0,0,0,1.92-.26v-9.1h1.17v9.94a8.18,8.18,0,1,1,0-15.2v1.31a6.88,6.88,0,0,0-3.09-.72,7,7,0,1,0,0,14Z"/><path class="cls-2" d="M104.92,159.22a5.52,5.52,0,0,1-.86.07l0,5.82h-1.17V148.75c4.21-.23,6.5,2.38,6.5,5.28a5.31,5.31,0,0,1-3.32,4.89c.42,2.9,1.75,5,3.37,5v1.17C107.31,165.11,105.48,162.64,104.92,159.22Zm-.89-9.29v8.19h0a4.09,4.09,0,0,0,0-8.19Z"/><path class="cls-2" d="M125.41,158.1h.68l1.82-9.35h1.26l3.18,16.37h-1.19L130,159.27h-3l-1.15,5.85h-1.19l1.15-5.85h-.44Zm1.87,0h2.53l-1.26-6.5Z"/><path class="cls-2" d="M147.69,148.75h1.22V164h4.63v1.12h-5.85Z"/><path class="cls-2" d="M170.36,148.75h1.17v16.37h-1.17Z"/><path class="cls-2" d="M195,148.9v1.17c-6.71-.56,1.29,15.41-7.53,15v-1.19C194.8,164.66,186.69,148.67,195,148.9Z"/><path class="cls-1" d="M85.94,0S69.85,6.59,68.44,21.19,64,38.61,61.52,41.55s-4,5.26-2.38,5.91,3.68,1.71,3.68,1.71.31,3.15-.17,4.13,1.58,2.31,1.58,2.31-2.67,1-.61,2.88S66.11,60.25,65.7,63s-1.38,7.49,1.4,9.86,14.16-5.64,17.43,0,3.43,19-5.17,21.53c0,0,21.61-3.34,19.74-25.4S68.67,22.28,85.94,0Z"/><path class="cls-1" d="M131.23,16.62S146,25.83,144.9,40.46s1.44,17.92,3.39,21.23,3.06,5.86,1.35,6.23S145.73,69,145.73,69s-.84,3.06-.52,4.1-1.95,2-1.95,2,2.45,1.48.11,2.94-2.75,1.3-2.81,4.11.09,7.62-3,9.48-13-7.95-17.18-2.93-6.58,18.16,1.47,22.1c0,0-20.74-6.93-15.19-28.36S144.49,41.49,131.23,16.62Z"/><circle class="cls-1" cx="107.62" cy="29.53" r="11.83"/><polygon class="cls-1" points="79.82 122.29 38.83 122.29 38.83 1.71 70.55 1.71 70.55 0.28 37.4 0.28 37.4 123.72 79.82 123.72 79.82 122.29"/><polygon class="cls-1" points="93.89 0.28 93.89 1.71 156.87 1.71 156.87 122.29 69.61 122.29 69.61 123.72 158.3 123.72 158.3 0.28 93.89 0.28"/></g></g></svg>